<svg width="28" height="27" viewBox="0 0 28 27" fill="none" xmlns="http://www.w3.org/2000/svg">
<path fill-rule="evenodd" clip-rule="evenodd" d="M14.0347 0.666656C6.68936 0.666656 0.736023 6.61999 0.736023 13.9653C0.736023 19.84 4.54536 24.8253 9.83069 26.5853C10.496 26.7053 10.736 26.296 10.736 25.944C10.736 25.628 10.7254 24.7907 10.7214 23.6827C7.02136 24.4853 6.24002 21.8987 6.24002 21.8987C5.63736 20.3627 4.76402 19.9533 4.76402 19.9533C3.55736 19.128 4.85602 19.1467 4.85602 19.1467C6.19202 19.24 6.89202 20.5173 6.89202 20.5173C8.07869 22.5493 10.0067 21.9627 10.7614 21.6227C10.8827 20.7627 11.2294 20.176 11.608 19.844C8.65602 19.5093 5.55202 18.368 5.55202 13.2707C5.55202 11.8213 6.07069 10.632 6.91736 9.70399C6.78269 9.36666 6.32269 8.01332 7.04936 6.18399C7.04936 6.18399 8.16536 5.82532 10.7054 7.54532C11.7901 7.25022 12.9091 7.09958 14.0334 7.09732C15.1576 7.09915 16.2767 7.24979 17.3614 7.54532C19.9027 5.82399 21.0174 6.18399 21.0174 6.18399C21.744 8.01332 21.288 9.36666 21.1494 9.70399C22.0027 10.632 22.5147 11.82 22.5147 13.2707C22.5147 18.3813 19.408 19.504 16.4454 19.8333C16.9187 20.244 17.3454 21.0547 17.3454 22.2947C17.3454 24.0733 17.3294 25.508 17.3294 25.944C17.3294 26.3 17.5667 26.7133 18.2454 26.5827C23.528 24.82 27.3334 19.8387 27.3334 13.9653C27.3334 6.61999 21.38 0.666656 14.0347 0.666656Z" fill="white"/>
</svg>
