<svg width="24" height="24" viewBox="0 0 24 24" fill="none" xmlns="http://www.w3.org/2000/svg">
<path d="M22.6667 0H1.33333C0.979711 0 0.640573 0.140476 0.390524 0.390524C0.140476 0.640573 0 0.979711 0 1.33333V22.6667C0 23.0203 0.140476 23.3594 0.390524 23.6095C0.640573 23.8595 0.979711 24 1.33333 24H22.6667C23.0203 24 23.3594 23.8595 23.6095 23.6095C23.8595 23.3594 24 23.0203 24 22.6667V1.33333C24 0.979711 23.8595 0.640573 23.6095 0.390524C23.3594 0.140476 23.0203 0 22.6667 0ZM7.11867 20.4493H3.556V8.996H7.11867V20.4493ZM5.33733 7.432C4.78993 7.432 4.26494 7.21454 3.87786 6.82747C3.49079 6.44039 3.27333 5.91541 3.27333 5.368C3.27333 4.82059 3.49079 4.29561 3.87786 3.90853C4.26494 3.52146 4.78993 3.304 5.33733 3.304C5.88474 3.304 6.40973 3.52146 6.7968 3.90853C7.18388 4.29561 7.40133 4.82059 7.40133 5.368C7.40133 5.91541 7.18388 6.44039 6.7968 6.82747C6.40973 7.21454 5.88474 7.432 5.33733 7.432ZM20.4507 20.4493H16.892V14.88C16.892 13.552 16.868 11.844 15.0413 11.844C13.188 11.844 12.9067 13.292 12.9067 14.7867V20.4507H9.35067V8.99733H12.764V10.5627H12.8133C13.2867 9.66267 14.4493 8.71333 16.1787 8.71333C19.784 8.71333 20.4493 11.084 20.4493 14.1693L20.4507 20.4493Z" fill="white"/>
</svg>
