<svg width="28" height="28" viewBox="0 0 28 28" fill="none" xmlns="http://www.w3.org/2000/svg">
<path d="M7.324 14C7.324 17.6813 10.3187 20.676 14 20.676C17.6813 20.676 20.676 17.6813 20.676 14C20.676 10.3187 17.6813 7.32399 14 7.32399C10.3187 7.32399 7.324 10.3187 7.324 14ZM14 9.99066C16.2107 9.99066 18.0093 11.7893 18.0093 14C18.0093 16.2107 16.2107 18.0093 14 18.0093C11.7893 18.0093 9.99067 16.2107 9.99067 14C9.99067 11.7893 11.7893 9.99066 14 9.99066ZM12.664 23.3333H15.3307V27.3333H12.664V23.3333ZM12.664 0.666656H15.3307V4.66666H12.664V0.666656ZM0.664001 12.6667H4.664V15.3333H0.664001V12.6667ZM23.3307 12.6667H27.3307V15.3333H23.3307V12.6667ZM3.62533 22.484L6.452 19.6547L8.33867 21.54L5.512 24.3693L3.62533 22.484ZM19.6533 6.45866L22.4827 3.62932L24.368 5.51466L21.5387 8.34399L19.6533 6.45866ZM6.456 8.34532L3.62667 5.51599L5.51333 3.63066L8.34 6.45999L6.456 8.34532ZM24.368 22.4853L22.4827 24.3707L19.6533 21.5413L21.5387 19.656L24.368 22.4853Z" fill="white"/>
</svg>
